<?xml version="1.0" encoding="UTF-8"?>
<svg xmlns="http://www.w3.org/2000/svg" version="1.1" viewBox="0 0 900 900">
  <defs>
    <style>
      .cls-1 {
        fill: #d0f2d9;
      }
    </style>
  </defs>
  <!-- Generator: Adobe Illustrator 28.6.0, SVG Export Plug-In . SVG Version: 1.2.0 Build 709)  -->
  <g>
    <g id="Ebene_1">
      <rect class="cls-1" x="164.4" y="164.4" width="571.2" height="571.2" transform="translate(450 -186.4) rotate(45)"/>
      <g>
        <g id="_Rasterwiederholung_">
          <circle cx="121.2" cy="121.2" r="6.5"/>
        </g>
        <g id="_Rasterwiederholung_-2">
          <circle cx="215.1" cy="121.2" r="6.5"/>
        </g>
        <g id="_Rasterwiederholung_-3">
          <circle cx="309.1" cy="121.2" r="6.5"/>
        </g>
        <g id="_Rasterwiederholung_-4">
          <circle cx="403" cy="121.2" r="6.5"/>
        </g>
        <g id="_Rasterwiederholung_-5">
          <circle cx="497" cy="121.2" r="6.5"/>
        </g>
        <g id="_Rasterwiederholung_-6">
          <circle cx="590.9" cy="121.2" r="6.5"/>
        </g>
        <g id="_Rasterwiederholung_-7">
          <circle cx="684.9" cy="121.2" r="6.5"/>
        </g>
        <g id="_Rasterwiederholung_-8">
          <circle cx="778.8" cy="121.2" r="6.5"/>
        </g>
        <g id="_Rasterwiederholung_-9">
          <circle cx="121.2" cy="215.1" r="6.5"/>
        </g>
        <g id="_Rasterwiederholung_-10">
          <circle cx="215.1" cy="215.1" r="6.5"/>
        </g>
        <g id="_Rasterwiederholung_-11">
          <circle cx="309.1" cy="215.1" r="6.5"/>
        </g>
        <g id="_Rasterwiederholung_-12">
          <circle cx="403" cy="215.1" r="6.5"/>
        </g>
        <g id="_Rasterwiederholung_-13">
          <circle cx="497" cy="215.1" r="6.5"/>
        </g>
        <g id="_Rasterwiederholung_-14">
          <circle cx="590.9" cy="215.1" r="6.5"/>
        </g>
        <g id="_Rasterwiederholung_-15">
          <circle cx="684.9" cy="215.1" r="6.5"/>
        </g>
        <g id="_Rasterwiederholung_-16">
          <circle cx="778.8" cy="215.1" r="6.5"/>
        </g>
        <g id="_Rasterwiederholung_-17">
          <circle cx="121.2" cy="309.1" r="6.5"/>
        </g>
        <g id="_Rasterwiederholung_-18">
          <circle cx="215.1" cy="309.1" r="6.5"/>
        </g>
        <g id="_Rasterwiederholung_-19">
          <circle cx="309.1" cy="309.1" r="6.5"/>
        </g>
        <g id="_Rasterwiederholung_-20">
          <circle cx="403" cy="309.1" r="6.5"/>
        </g>
        <g id="_Rasterwiederholung_-21">
          <circle cx="497" cy="309.1" r="6.5"/>
        </g>
        <g id="_Rasterwiederholung_-22">
          <circle cx="590.9" cy="309.1" r="6.5"/>
        </g>
        <g id="_Rasterwiederholung_-23">
          <circle cx="684.9" cy="309.1" r="6.5"/>
        </g>
        <g id="_Rasterwiederholung_-24">
          <circle cx="778.8" cy="309.1" r="6.5"/>
        </g>
        <g id="_Rasterwiederholung_-25">
          <circle cx="121.2" cy="403" r="6.5"/>
        </g>
        <g id="_Rasterwiederholung_-26">
          <circle cx="215.1" cy="403" r="6.5"/>
        </g>
        <g id="_Rasterwiederholung_-27">
          <circle cx="309.1" cy="403" r="6.5"/>
        </g>
        <g id="_Rasterwiederholung_-28">
          <circle cx="403" cy="403" r="6.5"/>
        </g>
        <g id="_Rasterwiederholung_-29">
          <circle cx="497" cy="403" r="6.5"/>
        </g>
        <g id="_Rasterwiederholung_-30">
          <circle cx="590.9" cy="403" r="6.5"/>
        </g>
        <g id="_Rasterwiederholung_-31">
          <circle cx="684.9" cy="403" r="6.5"/>
        </g>
        <g id="_Rasterwiederholung_-32">
          <circle cx="778.8" cy="403" r="6.5"/>
        </g>
        <g id="_Rasterwiederholung_-33">
          <circle cx="121.2" cy="497" r="6.5"/>
        </g>
        <g id="_Rasterwiederholung_-34">
          <circle cx="215.1" cy="497" r="6.5"/>
        </g>
        <g id="_Rasterwiederholung_-35">
          <circle cx="309.1" cy="497" r="6.5"/>
        </g>
        <g id="_Rasterwiederholung_-36">
          <circle cx="403" cy="497" r="6.5"/>
        </g>
        <g id="_Rasterwiederholung_-37">
          <circle cx="497" cy="497" r="6.5"/>
        </g>
        <g id="_Rasterwiederholung_-38">
          <circle cx="590.9" cy="497" r="6.5"/>
        </g>
        <g id="_Rasterwiederholung_-39">
          <circle cx="684.9" cy="497" r="6.5"/>
        </g>
        <g id="_Rasterwiederholung_-40">
          <circle cx="778.8" cy="497" r="6.5"/>
        </g>
        <g id="_Rasterwiederholung_-41">
          <circle cx="121.2" cy="590.9" r="6.5"/>
        </g>
        <g id="_Rasterwiederholung_-42">
          <circle cx="215.1" cy="590.9" r="6.5"/>
        </g>
        <g id="_Rasterwiederholung_-43">
          <circle cx="309.1" cy="590.9" r="6.5"/>
        </g>
        <g id="_Rasterwiederholung_-44">
          <circle cx="403" cy="590.9" r="6.5"/>
        </g>
        <g id="_Rasterwiederholung_-45">
          <circle cx="497" cy="590.9" r="6.5"/>
        </g>
        <g id="_Rasterwiederholung_-46">
          <circle cx="590.9" cy="590.9" r="6.5"/>
        </g>
        <g id="_Rasterwiederholung_-47">
          <circle cx="684.9" cy="590.9" r="6.5"/>
        </g>
        <g id="_Rasterwiederholung_-48">
          <circle cx="778.8" cy="590.9" r="6.5"/>
        </g>
        <g id="_Rasterwiederholung_-49">
          <circle cx="121.2" cy="684.9" r="6.5"/>
        </g>
        <g id="_Rasterwiederholung_-50">
          <circle cx="215.1" cy="684.9" r="6.5"/>
        </g>
        <g id="_Rasterwiederholung_-51">
          <circle cx="309.1" cy="684.9" r="6.5"/>
        </g>
        <g id="_Rasterwiederholung_-52">
          <circle cx="403" cy="684.9" r="6.5"/>
        </g>
        <g id="_Rasterwiederholung_-53">
          <circle cx="497" cy="684.9" r="6.5"/>
        </g>
        <g id="_Rasterwiederholung_-54">
          <circle cx="590.9" cy="684.9" r="6.5"/>
        </g>
        <g id="_Rasterwiederholung_-55">
          <circle cx="684.9" cy="684.9" r="6.5"/>
        </g>
        <g id="_Rasterwiederholung_-56">
          <circle cx="778.8" cy="684.9" r="6.5"/>
        </g>
        <g id="_Rasterwiederholung_-57">
          <circle cx="121.2" cy="778.8" r="6.5"/>
        </g>
        <g id="_Rasterwiederholung_-58">
          <circle cx="215.1" cy="778.8" r="6.5"/>
        </g>
        <g id="_Rasterwiederholung_-59">
          <circle cx="309.1" cy="778.8" r="6.5"/>
        </g>
        <g id="_Rasterwiederholung_-60">
          <circle cx="403" cy="778.8" r="6.5"/>
        </g>
        <g id="_Rasterwiederholung_-61">
          <circle cx="497" cy="778.8" r="6.5"/>
        </g>
        <g id="_Rasterwiederholung_-62">
          <circle cx="590.9" cy="778.8" r="6.5"/>
        </g>
        <g id="_Rasterwiederholung_-63">
          <circle cx="684.9" cy="778.8" r="6.5"/>
        </g>
        <g id="_Rasterwiederholung_-64">
          <circle cx="778.8" cy="778.8" r="6.5"/>
        </g>
      </g>
    </g>
  </g>
</svg>